<svg id="svg" version="1.1" xmlns="http://www.w3.org/2000/svg" xmlns:xlink="http://www.w3.org/1999/xlink" width="400" height="400" viewBox="0, 0, 400,400"><g id="svgg"><path id="path0" d="M225.480 77.969 C 224.588 78.950,222.292 82.622,222.292 83.067 C 222.292 83.427,222.799 83.872,224.531 85.030 C 225.763 85.854,227.474 87.039,228.333 87.663 C 230.372 89.142,238.099 96.804,241.300 100.521 C 242.682 102.125,247.769 107.422,252.604 112.292 C 259.570 119.308,262.143 122.054,264.996 125.521 C 267.873 129.017,270.387 131.696,277.506 138.854 C 282.406 143.781,286.576 148.141,286.773 148.542 C 286.970 148.943,288.093 150.255,289.268 151.458 C 290.443 152.661,291.473 153.880,291.556 154.167 C 291.805 155.018,296.248 159.375,296.868 159.375 C 297.568 159.375,301.667 155.333,301.667 154.643 C 301.667 154.354,301.159 153.634,300.341 152.764 C 299.611 151.989,298.941 151.120,298.852 150.833 C 298.763 150.547,297.449 149.047,295.933 147.500 C 294.416 145.953,293.014 144.359,292.816 143.958 C 292.618 143.557,288.262 139.010,283.135 133.854 C 275.619 126.294,273.118 123.632,270.215 120.104 C 267.348 116.620,264.804 113.906,257.716 106.771 C 252.822 101.844,248.035 96.875,247.079 95.729 C 241.955 89.590,234.655 82.833,229.225 79.202 C 226.481 77.367,226.131 77.252,225.480 77.969 M167.801 112.384 C 167.336 113.094,167.433 118.658,167.917 118.963 C 168.089 119.072,169.167 119.164,170.313 119.168 C 176.826 119.190,186.400 122.193,191.354 125.767 C 192.729 126.758,194.898 128.201,196.174 128.973 C 197.450 129.745,199.632 131.139,201.023 132.071 C 202.414 133.003,204.417 134.288,205.474 134.926 C 206.531 135.565,208.193 136.676,209.167 137.395 C 210.141 138.114,211.734 139.101,212.708 139.588 C 213.682 140.075,214.995 140.822,215.625 141.249 C 217.028 142.199,218.149 142.777,219.730 143.364 C 220.776 143.753,221.372 144.241,224.180 147.011 C 226.536 149.334,227.558 150.208,227.919 150.208 C 228.549 150.208,232.708 146.122,232.708 145.503 C 232.708 145.243,231.219 143.613,228.698 141.113 L 224.688 137.136 222.970 136.572 C 222.008 136.256,220.560 135.556,219.678 134.981 C 218.812 134.415,217.429 133.615,216.604 133.203 C 215.779 132.790,214.307 131.865,213.333 131.147 C 212.359 130.429,210.438 129.160,209.063 128.326 C 207.688 127.491,205.625 126.177,204.479 125.405 C 203.333 124.633,201.505 123.465,200.417 122.810 C 199.328 122.156,197.066 120.646,195.390 119.456 C 190.842 116.227,185.017 113.988,176.725 112.282 C 173.538 111.626,168.258 111.686,167.801 112.384 M120.000 142.615 C 114.636 143.532,111.285 144.251,110.521 144.651 C 110.292 144.771,108.946 144.925,107.530 144.993 C 105.325 145.100,104.915 145.174,104.666 145.515 C 104.220 146.125,104.251 151.721,104.702 152.173 C 105.234 152.704,110.165 152.636,111.790 152.076 C 118.994 149.591,132.748 148.366,139.792 149.583 C 141.109 149.811,143.101 149.998,144.217 149.999 C 146.078 150.000,146.427 150.069,148.438 150.833 C 150.344 151.558,150.852 151.667,152.346 151.670 C 153.372 151.672,154.690 151.838,155.625 152.083 C 157.492 152.573,163.474 152.693,163.917 152.250 C 164.089 152.077,164.167 151.017,164.167 148.824 C 164.167 144.836,164.316 145.000,160.696 145.000 C 158.873 145.000,157.661 144.882,156.419 144.585 C 155.467 144.356,154.053 144.169,153.278 144.168 C 152.133 144.167,151.527 144.025,150.049 143.411 C 148.314 142.690,148.073 142.647,144.896 142.490 C 143.063 142.399,140.719 142.177,139.688 141.997 C 138.239 141.743,136.389 141.673,131.563 141.688 L 125.313 141.707 120.000 142.615 M210.985 198.750 C 210.507 199.126,210.140 199.167,207.219 199.167 C 203.124 199.167,203.333 198.962,203.333 202.963 C 203.333 207.152,201.205 206.667,219.583 206.667 C 238.045 206.667,235.833 207.234,235.833 202.500 C 235.833 197.799,237.447 198.333,223.257 198.333 C 211.830 198.333,211.500 198.345,210.985 198.750 M133.410 202.313 C 132.762 202.961,132.310 203.214,131.546 203.357 C 130.900 203.478,130.308 203.762,129.904 204.146 C 128.982 205.021,127.559 205.682,126.249 205.843 C 125.395 205.948,124.729 206.224,123.645 206.921 C 122.843 207.436,121.654 208.055,121.001 208.297 C 120.348 208.538,118.567 209.363,117.043 210.129 C 115.518 210.895,113.005 212.052,111.458 212.699 C 109.452 213.539,108.155 214.242,106.935 215.149 C 105.993 215.848,104.277 216.992,103.121 217.691 C 98.683 220.372,88.333 229.862,88.333 231.250 C 88.333 231.950,92.422 236.042,93.121 236.042 C 93.488 236.042,94.841 234.831,98.319 231.392 C 103.251 226.515,103.762 226.089,107.292 223.917 C 108.495 223.176,110.204 222.050,111.090 221.414 C 111.976 220.778,113.476 219.950,114.424 219.573 C 115.371 219.197,117.633 218.148,119.450 217.244 C 121.268 216.339,123.409 215.363,124.209 215.075 C 125.008 214.786,126.094 214.277,126.622 213.942 C 127.162 213.599,127.870 213.333,128.241 213.333 C 128.627 213.333,129.958 212.813,131.441 212.083 C 132.838 211.396,134.215 210.833,134.501 210.833 C 135.351 210.833,136.052 210.343,137.865 208.482 C 140.087 206.200,140.094 206.281,137.427 203.614 C 134.925 201.112,134.688 201.035,133.410 202.313 M278.426 239.675 C 278.152 240.094,278.105 240.696,278.161 243.088 L 278.229 245.992 279.811 247.647 C 281.154 249.052,281.412 249.439,281.514 250.198 C 281.622 251.004,281.891 251.355,284.222 253.724 C 285.645 255.170,287.232 257.010,287.748 257.813 C 288.264 258.615,288.883 259.445,289.124 259.658 C 289.364 259.870,289.930 260.811,290.382 261.748 C 290.833 262.685,291.352 263.575,291.534 263.726 C 291.987 264.102,293.992 267.151,294.661 268.482 C 294.962 269.080,295.577 270.140,296.029 270.839 C 296.481 271.538,297.010 272.596,297.204 273.190 C 297.399 273.785,297.967 275.089,298.467 276.090 C 298.966 277.090,299.749 278.848,300.206 279.995 C 300.664 281.143,301.589 283.184,302.264 284.531 C 305.329 290.655,307.797 297.152,309.394 303.302 C 310.067 305.897,310.810 308.724,311.043 309.583 C 311.538 311.403,311.578 316.246,311.100 316.404 C 310.960 316.451,309.976 315.653,308.913 314.631 C 307.849 313.609,306.276 312.301,305.417 311.724 C 302.526 309.783,301.477 308.826,294.841 302.075 C 291.061 298.229,286.708 294.036,284.676 292.284 C 282.580 290.476,280.406 288.376,279.374 287.162 C 278.411 286.030,276.073 283.324,274.177 281.148 C 270.385 276.796,267.459 272.825,264.525 268.049 C 263.469 266.329,262.070 264.347,261.417 263.644 C 260.607 262.772,260.086 261.974,259.777 261.131 C 259.399 260.102,258.969 259.539,257.203 257.760 C 254.441 254.979,254.500 254.981,251.932 257.582 L 250.000 259.539 249.984 262.322 C 249.924 272.599,249.846 274.932,249.518 276.250 C 249.243 277.356,249.179 278.881,249.169 284.583 C 249.161 289.693,249.072 292.148,248.840 293.750 C 248.665 294.953,248.438 298.000,248.337 300.521 C 248.235 303.042,248.007 305.995,247.830 307.083 C 247.653 308.172,247.506 310.298,247.504 311.808 C 247.498 315.885,246.883 319.710,246.241 319.666 C 245.659 319.627,242.963 317.487,242.383 316.604 C 242.067 316.123,241.136 315.026,240.313 314.167 C 239.490 313.307,238.219 311.807,237.487 310.833 C 234.395 306.717,229.503 300.812,227.822 299.167 C 225.656 297.047,222.916 293.657,220.833 290.521 C 218.747 287.380,216.763 284.898,214.171 282.188 C 212.571 280.515,211.726 279.428,211.042 278.164 C 210.526 277.212,209.913 276.134,209.680 275.769 L 209.255 275.104 206.567 275.046 L 203.879 274.987 202.554 276.296 C 201.209 277.624,200.000 279.614,200.000 280.498 C 200.000 280.765,199.452 282.145,198.782 283.565 C 198.112 284.984,197.443 286.521,197.295 286.979 C 196.926 288.120,195.594 290.753,194.632 292.242 C 194.194 292.920,193.473 294.356,193.029 295.435 C 192.586 296.513,191.690 298.146,191.038 299.063 C 189.621 301.056,189.498 301.281,188.646 303.451 C 188.281 304.380,187.317 306.262,186.503 307.633 C 184.219 311.480,177.455 325.416,177.597 325.982 C 177.780 326.714,183.095 329.309,183.722 328.973 C 184.026 328.811,185.510 326.062,188.216 320.652 C 190.438 316.209,192.784 311.702,193.430 310.638 C 194.076 309.573,194.941 307.845,195.353 306.799 C 195.788 305.693,196.601 304.198,197.293 303.229 C 198.662 301.313,198.920 300.841,199.771 298.698 C 200.113 297.838,200.808 296.490,201.316 295.703 C 202.496 293.872,203.554 291.754,204.235 289.857 C 204.817 288.237,206.131 285.515,206.416 285.339 C 206.958 285.003,212.259 291.096,215.001 295.208 C 217.312 298.673,219.559 301.449,222.504 304.479 C 224.732 306.771,228.751 311.624,232.082 316.042 C 232.816 317.016,233.963 318.386,234.632 319.087 C 235.300 319.788,236.251 320.942,236.745 321.652 C 237.622 322.913,238.814 323.911,242.083 326.120 C 242.828 326.624,243.906 327.523,244.479 328.118 C 245.895 329.587,246.352 329.792,248.229 329.792 C 251.752 329.792,253.887 326.862,254.168 321.639 C 254.252 320.076,254.399 318.671,254.494 318.518 C 254.589 318.364,254.735 316.268,254.820 313.859 C 254.904 311.450,255.119 308.635,255.296 307.604 C 255.476 306.555,255.622 304.445,255.628 302.813 C 255.634 301.208,255.786 298.865,255.967 297.604 C 256.194 296.022,256.343 292.702,256.449 286.875 C 256.567 280.381,256.680 278.054,256.941 276.771 C 257.128 275.854,257.339 274.284,257.409 273.281 C 257.568 271.018,257.531 271.012,259.163 273.594 C 261.175 276.776,264.461 281.360,265.968 283.088 C 266.700 283.927,269.257 286.884,271.650 289.659 C 275.065 293.617,276.579 295.193,278.678 296.972 C 280.150 298.220,284.964 302.820,289.375 307.194 C 296.693 314.452,298.692 316.248,301.771 318.339 C 302.344 318.728,303.656 319.853,304.688 320.839 C 305.719 321.826,306.992 322.879,307.517 323.179 C 308.041 323.480,308.598 323.879,308.754 324.067 C 308.909 324.254,309.464 324.626,309.987 324.893 C 310.510 325.159,311.213 325.668,311.549 326.022 C 312.403 326.921,312.983 326.857,314.188 325.729 C 315.124 324.854,315.266 324.792,316.333 324.792 C 317.825 324.792,318.125 324.405,318.125 322.480 C 318.125 321.533,318.261 320.787,318.555 320.122 C 318.958 319.212,318.981 318.833,318.916 314.210 L 318.847 309.271 317.978 306.354 C 317.500 304.750,316.728 301.916,316.261 300.056 C 315.021 295.107,312.156 287.641,309.334 282.005 C 308.653 280.644,307.687 278.534,307.188 277.317 C 306.689 276.100,305.890 274.260,305.412 273.229 C 304.934 272.198,304.284 270.687,303.967 269.871 C 303.650 269.055,303.111 267.977,302.769 267.475 C 302.427 266.973,301.696 265.685,301.144 264.612 C 300.593 263.539,299.932 262.411,299.675 262.106 C 299.417 261.800,298.909 260.944,298.545 260.202 C 298.180 259.461,297.562 258.212,297.170 257.427 C 296.656 256.394,296.458 255.720,296.458 254.993 C 296.458 253.745,296.090 253.333,294.973 253.333 C 293.798 253.333,289.999 249.456,288.480 246.705 C 287.930 245.710,287.168 244.568,286.786 244.167 C 285.791 243.122,285.625 242.695,285.625 241.174 C 285.625 239.180,285.600 239.167,281.865 239.167 C 278.802 239.167,278.755 239.174,278.426 239.675 M149.111 243.073 C 147.741 244.419,146.254 246.012,145.806 246.611 C 145.358 247.211,144.709 247.848,144.363 248.027 C 144.017 248.206,143.452 248.812,143.105 249.375 C 142.759 249.937,142.130 250.606,141.707 250.862 C 141.284 251.117,139.203 253.032,137.083 255.116 C 132.156 259.961,118.134 270.647,113.659 272.968 C 110.509 274.601,110.529 274.525,112.347 278.009 C 114.028 281.230,113.879 281.162,116.493 279.891 C 121.464 277.473,136.557 266.190,141.979 260.839 C 143.927 258.916,146.103 256.956,146.815 256.482 C 147.527 256.008,148.277 255.376,148.482 255.076 C 148.933 254.418,149.542 253.811,150.408 253.155 C 150.765 252.885,151.281 252.228,151.555 251.696 C 151.838 251.146,153.052 249.742,154.373 248.438 C 157.695 245.158,157.683 245.430,154.629 242.448 C 152.121 239.999,152.253 239.984,149.111 243.073 M162.320 273.224 C 159.287 275.273,158.664 275.836,157.127 277.917 C 156.492 278.776,155.530 279.955,154.989 280.536 C 154.447 281.117,153.814 281.961,153.582 282.411 C 153.350 282.861,152.721 283.651,152.185 284.167 C 151.649 284.682,150.830 285.667,150.366 286.354 C 149.902 287.042,148.845 288.307,148.018 289.167 C 147.047 290.176,146.248 291.260,145.761 292.228 C 145.111 293.520,144.781 293.898,143.367 294.974 C 141.908 296.085,141.629 296.413,140.835 297.955 C 140.271 299.048,139.456 300.196,138.624 301.066 C 137.022 302.742,133.905 308.690,134.291 309.336 C 134.618 309.883,139.946 312.545,140.416 312.396 C 140.665 312.317,141.333 311.243,142.205 309.520 C 143.280 307.394,143.890 306.463,144.896 305.413 C 145.668 304.606,146.502 303.447,146.949 302.560 C 147.598 301.272,147.929 300.893,149.345 299.815 C 150.826 298.687,151.082 298.382,151.938 296.730 C 152.510 295.627,153.276 294.522,153.860 293.958 C 154.394 293.443,155.211 292.458,155.676 291.771 C 156.140 291.083,157.196 289.818,158.022 288.958 C 158.848 288.099,159.716 287.021,159.950 286.563 C 160.184 286.104,160.630 285.495,160.941 285.208 C 161.252 284.922,161.955 284.025,162.504 283.216 C 163.700 281.452,164.347 280.864,167.196 278.953 C 169.877 277.154,169.864 277.253,167.784 274.146 C 165.549 270.809,165.826 270.856,162.320 273.224 " stroke="none" fill="#060606" fill-rule="evenodd"></path><path id="path1" d="M0.000 200.000 L 0.000 400.000 200.000 400.000 L 400.000 400.000 400.000 200.000 L 400.000 0.000 200.000 0.000 L 0.000 0.000 0.000 200.000 M229.225 79.202 C 234.655 82.833,241.955 89.590,247.079 95.729 C 248.035 96.875,252.822 101.844,257.716 106.771 C 264.804 113.906,267.348 116.620,270.215 120.104 C 273.118 123.632,275.619 126.294,283.135 133.854 C 288.262 139.010,292.618 143.557,292.816 143.958 C 293.014 144.359,294.416 145.953,295.933 147.500 C 297.449 149.047,298.763 150.547,298.852 150.833 C 298.941 151.120,299.611 151.989,300.341 152.764 C 301.159 153.634,301.667 154.354,301.667 154.643 C 301.667 155.333,297.568 159.375,296.868 159.375 C 296.248 159.375,291.805 155.018,291.556 154.167 C 291.473 153.880,290.443 152.661,289.268 151.458 C 288.093 150.255,286.970 148.943,286.773 148.542 C 286.576 148.141,282.406 143.781,277.506 138.854 C 270.387 131.696,267.873 129.017,264.996 125.521 C 262.143 122.054,259.570 119.308,252.604 112.292 C 247.769 107.422,242.682 102.125,241.300 100.521 C 238.099 96.804,230.372 89.142,228.333 87.663 C 227.474 87.039,225.763 85.854,224.531 85.030 C 221.816 83.214,221.831 83.295,223.673 80.519 C 226.101 76.859,225.820 76.925,229.225 79.202 M176.725 112.282 C 185.017 113.988,190.842 116.227,195.390 119.456 C 197.066 120.646,199.328 122.156,200.417 122.810 C 201.505 123.465,203.333 124.633,204.479 125.405 C 205.625 126.177,207.688 127.491,209.063 128.326 C 210.438 129.160,212.359 130.429,213.333 131.147 C 214.307 131.865,215.779 132.790,216.604 133.203 C 217.429 133.615,218.812 134.415,219.678 134.981 C 220.560 135.556,222.008 136.256,222.970 136.572 L 224.688 137.136 228.698 141.113 C 231.219 143.613,232.708 145.243,232.708 145.503 C 232.708 146.122,228.549 150.208,227.919 150.208 C 227.558 150.208,226.536 149.334,224.180 147.011 C 221.372 144.241,220.776 143.753,219.730 143.364 C 218.149 142.777,217.028 142.199,215.625 141.249 C 214.995 140.822,213.682 140.075,212.708 139.588 C 211.734 139.101,210.141 138.114,209.167 137.395 C 208.193 136.676,206.531 135.565,205.474 134.926 C 204.417 134.288,202.414 133.003,201.023 132.071 C 199.632 131.139,197.450 129.745,196.174 128.973 C 194.898 128.201,192.729 126.758,191.354 125.767 C 186.400 122.193,176.826 119.190,170.313 119.168 C 167.476 119.158,167.617 119.327,167.536 115.829 C 167.440 111.668,167.235 111.875,171.440 111.875 C 173.906 111.875,175.248 111.978,176.725 112.282 M139.688 141.997 C 140.719 142.177,143.063 142.399,144.896 142.490 C 148.073 142.647,148.314 142.690,150.049 143.411 C 151.527 144.025,152.133 144.167,153.278 144.168 C 154.053 144.169,155.467 144.356,156.419 144.585 C 157.661 144.882,158.873 145.000,160.696 145.000 C 164.316 145.000,164.167 144.836,164.167 148.824 C 164.167 151.017,164.089 152.077,163.917 152.250 C 163.474 152.693,157.492 152.573,155.625 152.083 C 154.690 151.838,153.372 151.672,152.346 151.670 C 150.852 151.667,150.344 151.558,148.438 150.833 C 146.427 150.069,146.078 150.000,144.217 149.999 C 143.101 149.998,141.109 149.811,139.792 149.583 C 132.748 148.366,118.994 149.591,111.790 152.076 C 110.165 152.636,105.234 152.704,104.702 152.173 C 104.251 151.721,104.220 146.125,104.666 145.515 C 104.915 145.174,105.325 145.100,107.530 144.993 C 108.946 144.925,110.292 144.771,110.521 144.651 C 111.285 144.251,114.636 143.532,120.000 142.615 L 125.313 141.707 131.563 141.688 C 136.389 141.673,138.239 141.743,139.688 141.997 M235.417 198.750 C 235.799 199.132,235.833 199.444,235.833 202.500 C 235.833 207.234,238.045 206.667,219.583 206.667 C 201.205 206.667,203.333 207.152,203.333 202.963 C 203.333 198.962,203.124 199.167,207.219 199.167 C 210.140 199.167,210.507 199.126,210.985 198.750 C 211.500 198.345,211.830 198.333,223.257 198.333 C 234.722 198.333,235.010 198.343,235.417 198.750 M137.427 203.614 C 140.094 206.281,140.087 206.200,137.865 208.482 C 136.052 210.343,135.351 210.833,134.501 210.833 C 134.215 210.833,132.838 211.396,131.441 212.083 C 129.958 212.813,128.627 213.333,128.241 213.333 C 127.870 213.333,127.162 213.599,126.622 213.942 C 126.094 214.277,125.008 214.786,124.209 215.075 C 123.409 215.363,121.268 216.339,119.450 217.244 C 117.633 218.148,115.371 219.197,114.424 219.573 C 113.476 219.950,111.976 220.778,111.090 221.414 C 110.204 222.050,108.495 223.176,107.292 223.917 C 103.762 226.089,103.251 226.515,98.319 231.392 C 94.841 234.831,93.488 236.042,93.121 236.042 C 92.422 236.042,88.333 231.950,88.333 231.250 C 88.333 229.862,98.683 220.372,103.121 217.691 C 104.277 216.992,105.993 215.848,106.935 215.149 C 108.155 214.242,109.452 213.539,111.458 212.699 C 113.005 212.052,115.518 210.895,117.043 210.129 C 118.567 209.363,120.348 208.538,121.001 208.297 C 121.654 208.055,122.843 207.436,123.645 206.921 C 124.729 206.224,125.395 205.948,126.249 205.843 C 127.559 205.682,128.982 205.021,129.904 204.146 C 130.308 203.762,130.900 203.478,131.546 203.357 C 132.310 203.214,132.762 202.961,133.410 202.313 C 134.688 201.035,134.925 201.112,137.427 203.614 M285.298 239.494 C 285.528 239.724,285.625 240.222,285.625 241.174 C 285.625 242.695,285.791 243.122,286.786 244.167 C 287.168 244.568,287.930 245.710,288.480 246.705 C 289.999 249.456,293.798 253.333,294.973 253.333 C 296.090 253.333,296.458 253.745,296.458 254.993 C 296.458 255.720,296.656 256.394,297.170 257.427 C 297.562 258.212,298.180 259.461,298.545 260.202 C 298.909 260.944,299.417 261.800,299.675 262.106 C 299.932 262.411,300.593 263.539,301.144 264.612 C 301.696 265.685,302.427 266.973,302.769 267.475 C 303.111 267.977,303.650 269.055,303.967 269.871 C 304.284 270.687,304.934 272.198,305.412 273.229 C 305.890 274.260,306.689 276.100,307.188 277.317 C 307.687 278.534,308.653 280.644,309.334 282.005 C 312.156 287.641,315.021 295.107,316.261 300.056 C 316.728 301.916,317.500 304.750,317.978 306.354 L 318.847 309.271 318.916 314.210 C 318.981 318.833,318.958 319.212,318.555 320.122 C 318.261 320.787,318.125 321.533,318.125 322.480 C 318.125 324.405,317.825 324.792,316.333 324.792 C 315.266 324.792,315.124 324.854,314.188 325.729 C 312.983 326.857,312.403 326.921,311.549 326.022 C 311.213 325.668,310.510 325.159,309.987 324.893 C 309.464 324.626,308.909 324.254,308.754 324.067 C 308.598 323.879,308.041 323.480,307.517 323.179 C 306.992 322.879,305.719 321.826,304.688 320.839 C 303.656 319.853,302.344 318.728,301.771 318.339 C 298.692 316.248,296.693 314.452,289.375 307.194 C 284.964 302.820,280.150 298.220,278.678 296.972 C 276.579 295.193,275.065 293.617,271.650 289.659 C 269.257 286.884,266.700 283.927,265.968 283.088 C 264.461 281.360,261.175 276.776,259.163 273.594 C 257.531 271.012,257.568 271.018,257.409 273.281 C 257.339 274.284,257.128 275.854,256.941 276.771 C 256.680 278.054,256.567 280.381,256.449 286.875 C 256.343 292.702,256.194 296.022,255.967 297.604 C 255.786 298.865,255.634 301.208,255.628 302.813 C 255.622 304.445,255.476 306.555,255.296 307.604 C 255.119 308.635,254.904 311.450,254.820 313.859 C 254.735 316.268,254.589 318.364,254.494 318.518 C 254.399 318.671,254.252 320.076,254.168 321.639 C 253.774 328.953,248.609 332.407,244.479 328.118 C 243.906 327.523,242.828 326.624,242.083 326.120 C 238.814 323.911,237.622 322.913,236.745 321.652 C 236.251 320.942,235.300 319.788,234.632 319.087 C 233.963 318.386,232.816 317.016,232.082 316.042 C 228.751 311.624,224.732 306.771,222.504 304.479 C 219.559 301.449,217.312 298.673,215.001 295.208 C 212.259 291.096,206.958 285.003,206.416 285.339 C 206.131 285.515,204.817 288.237,204.235 289.857 C 203.554 291.754,202.496 293.872,201.316 295.703 C 200.808 296.490,200.113 297.838,199.771 298.698 C 198.920 300.841,198.662 301.313,197.293 303.229 C 196.601 304.198,195.788 305.693,195.353 306.799 C 194.941 307.845,194.076 309.573,193.430 310.638 C 192.784 311.702,190.438 316.209,188.216 320.652 C 185.510 326.062,184.026 328.811,183.722 328.973 C 183.095 329.309,177.780 326.714,177.597 325.982 C 177.455 325.416,184.219 311.480,186.503 307.633 C 187.317 306.262,188.281 304.380,188.646 303.451 C 189.498 301.281,189.621 301.056,191.038 299.063 C 191.690 298.146,192.586 296.513,193.029 295.435 C 193.473 294.356,194.194 292.920,194.632 292.242 C 195.594 290.753,196.926 288.120,197.295 286.979 C 197.443 286.521,198.112 284.984,198.782 283.565 C 199.452 282.145,200.000 280.765,200.000 280.498 C 200.000 279.614,201.209 277.624,202.554 276.296 L 203.879 274.987 206.567 275.046 L 209.255 275.104 209.680 275.769 C 209.913 276.134,210.526 277.212,211.042 278.164 C 211.726 279.428,212.571 280.515,214.171 282.188 C 216.763 284.898,218.747 287.380,220.833 290.521 C 222.916 293.657,225.656 297.047,227.822 299.167 C 229.503 300.812,234.395 306.717,237.487 310.833 C 238.219 311.807,239.490 313.307,240.313 314.167 C 241.136 315.026,242.067 316.123,242.383 316.604 C 242.963 317.487,245.659 319.627,246.241 319.666 C 246.883 319.710,247.498 315.885,247.504 311.808 C 247.506 310.298,247.653 308.172,247.830 307.083 C 248.007 305.995,248.235 303.042,248.337 300.521 C 248.438 298.000,248.665 294.953,248.840 293.750 C 249.072 292.148,249.161 289.693,249.169 284.583 C 249.179 278.881,249.243 277.356,249.518 276.250 C 249.846 274.932,249.924 272.599,249.984 262.322 L 250.000 259.539 251.932 257.582 C 254.500 254.981,254.441 254.979,257.203 257.760 C 258.969 259.539,259.399 260.102,259.777 261.131 C 260.086 261.974,260.607 262.772,261.417 263.644 C 262.070 264.347,263.469 266.329,264.525 268.049 C 267.459 272.825,270.385 276.796,274.177 281.148 C 276.073 283.324,278.411 286.030,279.374 287.162 C 280.406 288.376,282.580 290.476,284.676 292.284 C 286.708 294.036,291.061 298.229,294.841 302.075 C 301.477 308.826,302.526 309.783,305.417 311.724 C 306.276 312.301,307.849 313.609,308.913 314.631 C 309.976 315.653,310.960 316.451,311.100 316.404 C 311.578 316.246,311.538 311.403,311.043 309.583 C 310.810 308.724,310.067 305.897,309.394 303.302 C 307.797 297.152,305.329 290.655,302.264 284.531 C 301.589 283.184,300.664 281.143,300.206 279.995 C 299.749 278.848,298.966 277.090,298.467 276.090 C 297.967 275.089,297.399 273.785,297.204 273.190 C 297.010 272.596,296.481 271.538,296.029 270.839 C 295.577 270.140,294.962 269.080,294.661 268.482 C 293.992 267.151,291.987 264.102,291.534 263.726 C 291.352 263.575,290.833 262.685,290.382 261.748 C 289.930 260.811,289.364 259.870,289.124 259.658 C 288.883 259.445,288.264 258.615,287.748 257.813 C 287.232 257.010,285.645 255.170,284.222 253.724 C 281.891 251.355,281.622 251.004,281.514 250.198 C 281.412 249.439,281.154 249.052,279.811 247.647 L 278.229 245.992 278.161 243.088 C 278.065 238.987,277.895 239.167,281.865 239.167 C 284.410 239.167,285.029 239.226,285.298 239.494 M154.629 242.448 C 157.683 245.430,157.695 245.158,154.373 248.438 C 153.052 249.742,151.838 251.146,151.555 251.696 C 151.281 252.228,150.765 252.885,150.408 253.155 C 149.542 253.811,148.933 254.418,148.482 255.076 C 148.277 255.376,147.527 256.008,146.815 256.482 C 146.103 256.956,143.927 258.916,141.979 260.839 C 136.557 266.190,121.464 277.473,116.493 279.891 C 113.879 281.162,114.028 281.230,112.347 278.009 C 110.529 274.525,110.509 274.601,113.659 272.968 C 118.134 270.647,132.156 259.961,137.083 255.116 C 139.203 253.032,141.284 251.117,141.707 250.862 C 142.130 250.606,142.759 249.937,143.105 249.375 C 143.452 248.812,144.017 248.206,144.363 248.027 C 144.709 247.848,145.358 247.211,145.806 246.611 C 146.254 246.012,147.741 244.419,149.111 243.073 C 152.253 239.984,152.121 239.999,154.629 242.448 M165.961 271.618 C 166.459 271.946,169.375 276.549,169.375 277.006 C 169.375 277.389,168.918 277.797,167.196 278.953 C 164.347 280.864,163.700 281.452,162.504 283.216 C 161.955 284.025,161.252 284.922,160.941 285.208 C 160.630 285.495,160.184 286.104,159.950 286.563 C 159.716 287.021,158.848 288.099,158.022 288.958 C 157.196 289.818,156.140 291.083,155.676 291.771 C 155.211 292.458,154.394 293.443,153.860 293.958 C 153.276 294.522,152.510 295.627,151.938 296.730 C 151.082 298.382,150.826 298.687,149.345 299.815 C 147.929 300.893,147.598 301.272,146.949 302.560 C 146.502 303.447,145.668 304.606,144.896 305.413 C 143.890 306.463,143.280 307.394,142.205 309.520 C 141.333 311.243,140.665 312.317,140.416 312.396 C 139.946 312.545,134.618 309.883,134.291 309.336 C 133.905 308.690,137.022 302.742,138.624 301.066 C 139.456 300.196,140.271 299.048,140.835 297.955 C 141.629 296.413,141.908 296.085,143.367 294.974 C 144.781 293.898,145.111 293.520,145.761 292.228 C 146.248 291.260,147.047 290.176,148.018 289.167 C 148.845 288.307,149.902 287.042,150.366 286.354 C 150.830 285.667,151.649 284.682,152.185 284.167 C 152.721 283.651,153.350 282.861,153.582 282.411 C 153.814 281.961,154.447 281.117,154.989 280.536 C 155.530 279.955,156.492 278.776,157.127 277.917 C 158.664 275.836,159.287 275.273,162.320 273.224 C 164.776 271.566,165.439 271.273,165.961 271.618 " stroke="none" fill="#f8fefc" fill-rule="evenodd"></path></g></svg>